<svg width="25" height="26" viewBox="0 0 25 26" fill="none" xmlns="http://www.w3.org/2000/svg">
<path d="M19.1667 3.33333V2C19.1667 1.26667 18.5667 0.666666 17.8333 0.666666C17.1 0.666666 16.5 1.26667 16.5 2V3.33333H8.5V2C8.5 1.26667 7.9 0.666666 7.16667 0.666666C6.43333 0.666666 5.83333 1.26667 5.83333 2V3.33333C2.88667 3.33333 0.5 5.72 0.5 8.66667V20.6667C0.5 23.6133 2.88667 26 5.83333 26H19.1667C22.1133 26 24.5 23.6133 24.5 20.6667V8.66667C24.5 5.72 22.1133 3.33333 19.1667 3.33333ZM21.8333 20.6667C21.8333 22.1333 20.6333 23.3333 19.1667 23.3333H5.83333C4.36667 23.3333 3.16667 22.1333 3.16667 20.6667V8.66667C3.16667 7.2 4.36667 6 5.83333 6V7.33333C5.83333 8.06667 6.43333 8.66667 7.16667 8.66667C7.9 8.66667 8.5 8.06667 8.5 7.33333V6H16.5V7.33333C16.5 8.06667 17.1 8.66667 17.8333 8.66667C18.5667 8.66667 19.1667 8.06667 19.1667 7.33333V6C20.6333 6 21.8333 7.2 21.8333 8.66667V20.6667Z" fill="#4D4D4F"/>
<path d="M9.44668 13.0667C8.95334 12.5733 8.04666 12.5733 7.55332 13.0667C7.43332 13.1867 7.34 13.3333 7.27334 13.4933C7.20667 13.6667 7.16667 13.84 7.16667 14.0133C7.16667 14.1866 7.20667 14.36 7.27334 14.52C7.34 14.68 7.43332 14.8267 7.55332 14.9467C7.80666 15.2 8.15333 15.3466 8.5 15.3466C8.67333 15.3466 8.84667 15.3067 9.00667 15.24C9.16667 15.1733 9.31334 15.08 9.44668 14.9467C9.56668 14.8267 9.66 14.68 9.72666 14.52C9.80666 14.36 9.83333 14.1866 9.83333 14.0133C9.83333 13.84 9.80666 13.6667 9.72666 13.4933C9.66 13.3333 9.56668 13.1867 9.44668 13.0667Z" fill="#4D4D4F"/>
<path d="M9.44668 17.0667C9.38001 17 9.31333 16.9467 9.24666 16.9067C9.16666 16.8533 9.08667 16.8133 9.00667 16.7733C8.92667 16.7467 8.84666 16.72 8.76666 16.7067C8.59333 16.6667 8.40666 16.6667 8.24666 16.7067C8.15333 16.7067 8.07333 16.7467 7.99333 16.7733C7.91333 16.8133 7.83333 16.8533 7.76666 16.9067C7.68666 16.9467 7.61999 17 7.55332 17.0667C7.43332 17.1867 7.34 17.3333 7.27334 17.4933C7.20667 17.6667 7.16667 17.8267 7.16667 18.0133C7.16667 18.3733 7.31332 18.7067 7.55332 18.9467C7.80666 19.2 8.15333 19.3466 8.5 19.3466C8.84667 19.3466 9.19334 19.2 9.44668 18.9467C9.70001 18.7067 9.83333 18.3733 9.83333 18.0133C9.83333 17.8267 9.79333 17.6667 9.72666 17.4933C9.66 17.3333 9.56668 17.1867 9.44668 17.0667Z" fill="#4D4D4F"/>
<path d="M13.4467 13.0667C13.38 13 13.3133 12.9466 13.2467 12.8933C13.1667 12.8533 13.0867 12.8133 13.0067 12.7733C12.9267 12.7467 12.8467 12.72 12.7667 12.7067C12.5 12.6533 12.2333 12.68 11.9933 12.7733C11.8333 12.84 11.6867 12.9467 11.5533 13.0667C11.4333 13.1867 11.34 13.3333 11.2733 13.4933C11.2067 13.6667 11.1667 13.84 11.1667 14.0133C11.1667 14.1866 11.2067 14.36 11.2733 14.52C11.34 14.68 11.4333 14.8267 11.5533 14.9467C11.6867 15.08 11.8333 15.1733 11.9933 15.24C12.1533 15.3067 12.3267 15.3466 12.5 15.3466C12.6733 15.3466 12.8467 15.3067 13.0067 15.24C13.1667 15.1733 13.3133 15.08 13.4467 14.9467C13.5667 14.8267 13.66 14.68 13.7267 14.52C13.8067 14.36 13.8333 14.1866 13.8333 14.0133C13.8333 13.84 13.8067 13.6667 13.7267 13.4933C13.66 13.3333 13.5667 13.1867 13.4467 13.0667Z" fill="#4D4D4F"/>
<path d="M13.4467 17.0666C13.3267 16.9466 13.18 16.84 13.0067 16.7733C12.6867 16.64 12.3133 16.64 11.9933 16.7733C11.8333 16.84 11.6867 16.9466 11.5533 17.0666C11.4333 17.1866 11.34 17.3333 11.2733 17.4933C11.2067 17.6666 11.1667 17.8266 11.1667 18.0133C11.1667 18.1866 11.2067 18.36 11.2733 18.52C11.34 18.68 11.4333 18.8266 11.5533 18.9466C11.6867 19.08 11.8333 19.1733 11.9933 19.24C12.1533 19.3066 12.3267 19.3466 12.5 19.3466C12.86 19.3466 13.1933 19.2 13.4467 18.9466C13.5667 18.8266 13.66 18.68 13.74 18.52C13.8067 18.36 13.8333 18.1866 13.8333 18.0133C13.8333 17.84 13.8067 17.6666 13.7267 17.4933C13.66 17.3333 13.5667 17.1866 13.4467 17.0666Z" fill="#4D4D4F"/>
<path d="M17.4467 13.0666C17.3267 12.9466 17.18 12.84 17.0067 12.7733C16.5133 12.5733 15.9267 12.6933 15.5533 13.0666C15.4333 13.1866 15.34 13.3333 15.2733 13.4933C15.2067 13.6666 15.1667 13.84 15.1667 14.0133C15.1667 14.1866 15.2067 14.36 15.2733 14.52C15.34 14.68 15.4333 14.8266 15.5533 14.9466C15.6867 15.08 15.8333 15.1733 15.9933 15.24C16.1533 15.3066 16.3267 15.3466 16.5 15.3466C16.6733 15.3466 16.8467 15.3066 17.0067 15.24C17.1667 15.1733 17.3133 15.08 17.4467 14.9466C17.5667 14.8266 17.66 14.68 17.7267 14.52C17.8067 14.36 17.8333 14.1866 17.8333 14.0133C17.8333 13.84 17.8067 13.6666 17.7267 13.4933C17.66 13.3333 17.5667 13.1866 17.4467 13.0666Z" fill="#4D4D4F"/>
<path d="M17.4467 17.0667C17.38 17 17.3133 16.9467 17.2467 16.9067C17.1667 16.8533 17.0867 16.8133 17.0067 16.7733C16.9267 16.7467 16.8467 16.72 16.7667 16.7067C16.5933 16.6667 16.4067 16.6667 16.2467 16.7067C16.1533 16.7067 16.0733 16.7467 15.9933 16.7733C15.9133 16.8133 15.8333 16.8533 15.7667 16.9067C15.6867 16.9467 15.62 17 15.5533 17.0667C15.4333 17.1867 15.34 17.3333 15.2733 17.4933C15.2067 17.6667 15.1667 17.8267 15.1667 18.0133C15.1667 18.3733 15.3133 18.7067 15.5533 18.9467C15.8067 19.2 16.1533 19.3466 16.5 19.3466C16.8467 19.3466 17.1933 19.2 17.4467 18.9467C17.7 18.7067 17.8333 18.3733 17.8333 18.0133C17.8333 17.8267 17.7933 17.6667 17.7267 17.4933C17.66 17.3333 17.5667 17.1867 17.4467 17.0667Z" fill="#4D4D4F"/>
</svg>
