<svg width="24" height="24" viewBox="0 0 24 24" fill="none" xmlns="http://www.w3.org/2000/svg">
<path d="M20.9898 11C20.4398 11 19.9898 11.45 19.9898 12C19.9898 16.4 16.4098 19.99 11.9998 19.99C7.58977 19.99 4.00977 16.41 4.00977 12C4.00977 7.59 7.58977 4.01001 11.9998 4.01001C12.5498 4.01001 12.9998 3.56001 12.9998 3.01001C12.9998 2.46001 12.5498 2.01001 11.9998 2.01001C6.48977 2.01001 2.00977 6.49 2.00977 12C2.00977 17.51 6.48977 21.99 11.9998 21.99C17.5098 21.99 21.9898 17.51 21.9898 12C21.9898 11.45 21.5398 11 20.9898 11Z" fill="#00B347"/>
<path d="M8.70978 10.2999C8.31978 9.90993 7.68978 9.90993 7.29978 10.2999C6.90978 10.6899 6.90978 11.32 7.29978 11.71L10.5598 14.96C10.9198 15.32 11.4098 15.5299 11.9198 15.5299C11.9598 15.5299 11.9998 15.5299 12.0398 15.5299C12.5898 15.4999 13.0998 15.2299 13.4398 14.7899L19.7898 6.62C20.1298 6.18 20.0498 5.55997 19.6198 5.21997C19.1798 4.87997 18.5598 4.96002 18.2198 5.39002L11.9198 13.5L8.71978 10.2999H8.70978Z" fill="#00B347"/>
</svg>
